<svg xmlns="http://www.w3.org/2000/svg" viewBox="0 0 512 512" width="512" height="512">
  <rect width="512" height="512" rx="112" fill="#0a0a0a"/>
  <g transform="translate(5.4 187.57) scale(0.30)">
    <path d="M 128.30 352.04 C121.58,347.95 122.00,356.06 122.01,229.30 C122.03,139.48 122.30,113.96 123.28,112.03 C123.97,110.67 126.05,108.53 127.91,107.28 L 131.30 105.00 L 219.24 105.00 C299.50,105.00 307.44,105.15 310.01,106.67 C318.41,111.62 315.92,126.26 306.23,128.95 C303.81,129.63 275.77,129.99 226.24,129.99 L 149.98 130.00 L 150.24 178.75 L 150.50 227.50 L 225.65 228.00 C297.87,228.48 300.87,228.57 302.90,230.41 C308.41,235.39 307.82,245.51 301.77,250.05 L 298.50 252.50 L 224.25 252.77 L 150.00 253.05 L 149.98 297.27 C149.96,338.72 149.84,341.77 148.04,345.73 C144.57,353.38 135.33,356.33 128.30,352.04 ZM 390.19 351.97 C386.45,349.70 384.00,344.77 384.00,339.54 C384.00,336.94 388.99,326.20 402.93,298.76 C413.34,278.27 439.64,226.18 461.37,183.00 C506.08,94.19 502.77,99.38 514.16,100.21 C522.10,100.78 525.22,103.94 532.53,118.86 C535.67,125.26 561.36,176.97 589.62,233.77 C617.88,290.57 641.00,337.94 641.00,339.05 C641.00,342.73 638.26,347.70 634.76,350.37 C628.18,355.39 620.08,353.21 613.94,344.78 C612.22,342.43 605.47,329.76 598.94,316.64 C592.41,303.52 586.54,292.16 585.91,291.39 C584.94,290.23 572.90,290.00 511.88,290.00 L 439.01 290.00 L 429.91 308.25 C414.02,340.10 409.10,348.66 405.06,351.46 C400.53,354.60 394.82,354.80 390.19,351.97 ZM 572.00 263.70 C572.00,262.98 570.91,260.17 569.57,257.45 C568.23,254.73 564.02,245.98 560.21,238.00 C556.39,230.02 548.54,213.82 542.76,202.00 C536.98,190.18 528.15,172.06 523.14,161.75 C518.13,151.44 513.56,143.00 513.00,143.00 C512.44,143.00 509.78,147.61 507.10,153.25 C504.42,158.89 491.15,185.91 477.61,213.29 C464.08,240.67 453.00,263.51 453.00,264.04 C453.00,264.64 475.13,265.00 512.50,265.00 C560.74,265.00 572.00,264.75 572.00,263.70 ZM 727.00 352.30 C724.87,351.21 722.72,348.93 721.50,346.50 C719.54,342.58 719.49,340.23 719.24,230.05 C719.01,131.26 719.16,116.96 720.51,112.31 C722.52,105.39 725.28,103.54 733.60,103.52 C738.88,103.50 740.25,103.88 742.52,106.00 C744.00,107.38 745.73,109.62 746.36,111.00 C747.16,112.75 747.65,131.49 748.00,173.15 L 748.50 232.79 L 756.08 226.15 C772.26,211.95 799.56,187.35 802.46,184.35 C804.13,182.62 814.28,173.47 825.00,164.03 C835.72,154.58 847.42,144.26 851.00,141.08 C880.71,114.68 887.88,108.46 890.50,106.85 C893.97,104.72 901.31,104.43 904.97,106.28 C908.65,108.14 912.01,113.72 911.96,117.90 C911.90,123.24 909.39,126.88 900.50,134.55 C892.83,141.16 841.38,186.69 820.50,205.32 C814.83,210.39 810.50,215.03 810.50,216.06 C810.50,217.05 813.86,221.38 817.96,225.68 C822.06,229.98 829.72,238.00 834.98,243.50 C840.23,249.00 851.28,260.68 859.52,269.46 C867.76,278.24 878.10,289.22 882.50,293.85 C886.90,298.48 890.95,302.78 891.50,303.41 C892.05,304.03 898.17,310.61 905.10,318.02 C912.02,325.43 918.21,332.48 918.85,333.68 C920.58,336.97 920.22,343.14 918.12,346.34 C914.16,352.34 906.14,354.69 900.20,351.59 C897.12,349.98 889.95,342.67 853.46,303.98 C812.48,260.55 802.67,250.00 796.03,242.25 C792.62,238.26 789.16,235.00 788.36,235.00 C787.56,235.00 785.38,236.46 783.53,238.25 C781.67,240.04 772.97,247.80 764.18,255.50 L 748.21 269.50 L 747.85 306.50 C747.58,335.22 747.20,344.09 746.14,346.15 C742.74,352.73 733.56,355.69 727.00,352.30 ZM 1010.90 351.73 C1003.50,346.79 1004.00,355.72 1004.06,228.50 C1004.10,142.90 1004.41,113.64 1005.31,111.03 C1006.00,109.03 1007.98,106.57 1010.00,105.20 C1016.40,100.86 1027.31,103.44 1030.74,110.10 C1031.67,111.91 1031.97,124.63 1031.99,161.62 C1031.99,188.64 1032.28,212.16 1032.63,213.88 L 1033.25 217.01 L 1098.38 216.76 L 1163.50 216.50 L 1164.00 164.00 C1164.39,123.22 1164.79,110.99 1165.81,109.20 C1170.68,100.67 1186.43,101.06 1190.58,109.80 C1192.19,113.20 1192.32,121.56 1192.40,228.15 L 1192.50 342.85 L 1190.41 345.67 C1186.65,350.75 1182.02,353.23 1177.26,352.71 C1172.02,352.14 1168.57,349.95 1166.27,345.74 C1164.66,342.80 1164.45,337.88 1164.00,292.50 L 1163.50 242.50 L 1098.00 242.50 L 1032.50 242.50 L 1032.00 293.68 C1031.51,343.46 1031.44,344.93 1029.43,347.68 C1026.86,351.18 1021.50,354.00 1017.40,354.00 C1015.69,354.00 1012.77,352.98 1010.90,351.73 ZM 1317.19 351.98 C1315.28,350.81 1313.07,348.17 1311.96,345.73 C1310.11,341.64 1310.04,337.76 1310.02,227.72 C1310.00,103.10 1309.73,108.74 1315.87,105.57 C1317.58,104.68 1321.38,104.00 1324.58,104.00 C1329.97,104.00 1330.48,104.22 1334.38,108.29 C1336.65,110.65 1340.10,115.27 1342.06,118.54 C1346.43,125.86 1360.61,148.84 1367.02,159.00 C1369.62,163.12 1380.18,180.23 1390.48,197.00 C1400.77,213.77 1409.97,228.62 1410.90,230.00 C1411.84,231.38 1415.88,238.01 1419.88,244.74 C1423.89,251.48 1427.57,257.23 1428.05,257.53 C1428.86,258.03 1431.98,253.49 1445.24,232.50 C1447.67,228.65 1452.77,220.65 1456.58,214.72 C1460.39,208.80 1465.30,201.03 1467.50,197.46 C1472.07,190.04 1486.80,166.66 1492.00,158.56 C1496.66,151.31 1512.40,126.02 1516.91,118.55 C1518.88,115.27 1522.12,110.89 1524.10,108.80 C1527.57,105.13 1527.92,105.00 1534.45,105.00 C1540.76,105.00 1541.42,105.22 1544.50,108.30 C1547.14,110.94 1547.94,112.71 1548.46,117.05 C1548.82,120.05 1548.98,172.23 1548.81,233.00 C1548.53,333.38 1548.35,343.77 1546.85,346.50 C1544.16,351.41 1541.59,353.09 1535.85,353.66 C1531.33,354.11 1529.96,353.82 1527.00,351.81 C1520.49,347.38 1520.81,352.43 1520.95,256.51 C1521.03,198.07 1520.74,168.96 1520.06,168.53 C1518.77,167.74 1520.80,164.59 1457.16,266.00 C1441.98,290.19 1436.76,296.58 1431.37,297.59 C1422.09,299.33 1417.30,294.34 1397.89,262.75 C1396.46,260.41 1392.90,254.68 1389.98,250.00 C1384.81,241.72 1371.38,219.86 1366.12,211.17 C1364.68,208.79 1361.89,204.29 1359.91,201.17 C1357.94,198.05 1352.54,189.43 1347.91,182.00 L 1339.50 168.50 L 1339.00 256.00 C1338.51,341.26 1338.45,343.58 1336.50,346.82 C1332.34,353.71 1323.79,356.00 1317.19,351.98 Z" fill="rgb(253,253,253)"/>
  </g>
</svg>
