<svg xmlns="http://www.w3.org/2000/svg" width="1467.00" height="296.55" viewBox="102.00 79.78 1467.00 296.55">
<g>
<path d="M 0.00 0.00 L 1600.00 0.00 L 1600.00 414.00 L 0.00 414.00 ZM 390.19 351.97 C394.82,354.80 400.53,354.60 405.06,351.46 C409.10,348.66 414.02,340.10 429.91,308.25 L 439.01 290.00 L 511.88 290.00 C572.90,290.00 584.94,290.23 585.91,291.39 C586.54,292.16 592.41,303.52 598.94,316.64 C605.47,329.76 612.22,342.43 613.94,344.78 C620.08,353.21 628.18,355.39 634.76,350.37 C638.26,347.70 641.00,342.73 641.00,339.05 C641.00,337.94 617.88,290.57 589.62,233.77 C561.36,176.97 535.67,125.26 532.53,118.86 C525.22,103.94 522.10,100.78 514.16,100.21 C513.52,100.16 512.93,100.10 512.38,100.04 C510.98,99.90 509.80,99.78 508.66,99.96 C502.21,100.98 497.28,111.67 461.37,183.00 C439.64,226.18 413.34,278.27 402.93,298.76 C388.99,326.20 384.00,336.94 384.00,339.54 C384.00,344.77 386.45,349.70 390.19,351.97 ZM 1317.19 351.98 C1323.79,356.00 1332.34,353.71 1336.50,346.82 C1338.45,343.58 1338.51,341.26 1339.00,256.00 L 1339.50 168.50 L 1347.91 182.00 C1352.54,189.43 1357.94,198.05 1359.91,201.17 C1361.89,204.29 1364.68,208.79 1366.12,211.17 C1371.38,219.86 1384.81,241.72 1389.98,250.00 C1392.90,254.68 1396.46,260.41 1397.89,262.75 C1417.30,294.34 1422.09,299.33 1431.37,297.59 C1436.76,296.58 1441.98,290.19 1457.16,266.00 L 1462.77 257.06 C1515.71,172.69 1518.69,167.95 1519.76,168.35 C1519.86,168.39 1519.95,168.47 1520.06,168.53 C1520.74,168.96 1521.03,198.07 1520.95,256.51 C1520.94,261.13 1520.94,265.51 1520.93,269.66 C1520.82,339.29 1520.81,346.88 1524.55,350.12 C1525.24,350.71 1526.05,351.16 1527.00,351.81 C1529.96,353.82 1531.33,354.11 1535.85,353.66 C1541.59,353.09 1544.16,351.41 1546.85,346.50 C1548.35,343.77 1548.53,333.38 1548.81,233.00 C1548.98,172.23 1548.82,120.05 1548.46,117.05 C1547.94,112.71 1547.14,110.94 1544.50,108.30 C1541.42,105.22 1540.76,105.00 1534.45,105.00 C1527.92,105.00 1527.57,105.13 1524.10,108.80 C1522.12,110.89 1518.88,115.27 1516.91,118.55 C1512.40,126.02 1496.66,151.31 1492.00,158.56 C1486.80,166.66 1472.07,190.04 1467.50,197.46 C1465.30,201.03 1460.39,208.80 1456.58,214.72 C1452.77,220.65 1447.67,228.65 1445.24,232.50 C1431.98,253.49 1428.86,258.03 1428.05,257.53 C1427.57,257.23 1423.89,251.48 1419.88,244.74 C1415.88,238.01 1411.84,231.38 1410.90,230.00 C1409.97,228.62 1400.77,213.77 1390.48,197.00 C1380.18,180.23 1369.62,163.12 1367.02,159.00 C1360.61,148.84 1346.43,125.86 1342.06,118.54 C1340.10,115.27 1336.65,110.65 1334.38,108.29 C1330.48,104.22 1329.97,104.00 1324.58,104.00 C1321.38,104.00 1317.58,104.68 1315.87,105.57 C1315.11,105.96 1314.45,106.22 1313.88,106.60 C1309.99,109.20 1309.99,117.62 1310.02,212.58 C1310.02,217.40 1310.02,222.44 1310.02,227.72 C1310.04,337.76 1310.11,341.64 1311.96,345.73 C1313.07,348.17 1315.28,350.81 1317.19,351.98 ZM 727.00 352.30 C733.56,355.69 742.74,352.73 746.14,346.15 C747.20,344.09 747.58,335.22 747.85,306.50 L 748.21 269.50 L 764.18 255.50 C772.97,247.80 781.67,240.04 783.53,238.25 C785.38,236.46 787.56,235.00 788.36,235.00 C789.16,235.00 792.62,238.26 796.03,242.25 C802.67,250.00 812.48,260.55 853.46,303.98 C889.95,342.67 897.12,349.98 900.20,351.59 C906.14,354.69 914.16,352.34 918.12,346.34 C920.22,343.14 920.58,336.97 918.85,333.68 C918.21,332.48 912.02,325.43 905.10,318.02 C898.17,310.61 892.05,304.03 891.50,303.41 C890.95,302.78 886.90,298.48 882.50,293.85 C878.10,289.22 867.76,278.24 859.52,269.46 C851.28,260.68 840.23,249.00 834.98,243.50 C829.72,238.00 822.06,229.98 817.96,225.68 C813.86,221.38 810.50,217.05 810.50,216.06 C810.50,215.03 814.83,210.39 820.50,205.32 C841.38,186.69 892.83,141.16 900.50,134.55 C909.39,126.88 911.90,123.24 911.96,117.90 C912.01,113.72 908.65,108.14 904.97,106.28 C901.31,104.43 893.97,104.72 890.50,106.85 C887.88,108.46 880.71,114.68 851.00,141.08 C847.42,144.26 835.72,154.58 825.00,164.03 C814.28,173.47 804.13,182.62 802.46,184.35 C799.56,187.35 772.26,211.95 756.08,226.15 L 748.50 232.79 L 748.00 173.15 C747.65,131.49 747.16,112.75 746.36,111.00 C745.73,109.62 744.00,107.38 742.52,106.00 C740.25,103.88 738.88,103.50 733.60,103.52 C725.28,103.54 722.52,105.39 720.51,112.31 C719.16,116.96 719.01,131.26 719.24,230.05 C719.49,340.23 719.54,342.58 721.50,346.50 C722.72,348.93 724.87,351.21 727.00,352.30 ZM 1010.90 351.73 C1012.77,352.98 1015.69,354.00 1017.40,354.00 C1021.50,354.00 1026.86,351.18 1029.43,347.68 C1031.44,344.93 1031.51,343.46 1032.00,293.68 L 1032.50 242.50 L 1163.50 242.50 L 1164.00 292.50 C1164.45,337.88 1164.66,342.80 1166.27,345.74 C1168.57,349.95 1172.02,352.14 1177.26,352.71 C1182.02,353.23 1186.65,350.75 1190.41,345.67 L 1192.50 342.85 L 1192.40 228.15 C1192.32,121.56 1192.19,113.20 1190.58,109.80 C1186.43,101.06 1170.68,100.67 1165.81,109.20 C1164.79,110.99 1164.39,123.22 1164.00,164.00 L 1163.50 216.50 L 1033.25 217.01 L 1032.63 213.88 C1032.28,212.16 1031.99,188.64 1031.99,161.62 C1031.97,124.63 1031.67,111.91 1030.74,110.10 C1027.31,103.44 1016.40,100.86 1010.00,105.20 C1007.98,106.57 1006.00,109.03 1005.31,111.03 C1004.41,113.64 1004.10,142.90 1004.06,228.50 C1004.05,236.59 1004.05,244.13 1004.04,251.16 C1003.98,338.21 1003.97,346.70 1008.09,349.95 C1008.87,350.57 1009.80,351.00 1010.90,351.73 ZM 128.30 352.04 C135.33,356.33 144.57,353.38 148.04,345.73 C149.84,341.77 149.96,338.72 149.98,297.27 L 150.00 253.05 L 224.25 252.77 L 298.50 252.50 L 301.77 250.05 C307.82,245.51 308.41,235.39 302.90,230.41 C300.87,228.57 297.87,228.48 225.65,228.00 L 150.50 227.50 L 150.24 178.75 L 149.98 130.00 L 226.24 129.99 C275.77,129.99 303.81,129.63 306.23,128.95 C315.92,126.26 318.41,111.62 310.01,106.67 C307.44,105.15 299.50,105.00 219.24,105.00 L 131.30 105.00 L 127.91 107.28 C126.05,108.53 123.97,110.67 123.28,112.03 C122.30,113.96 122.03,139.48 122.01,229.30 C122.01,236.73 122.01,243.69 122.01,250.23 C121.98,339.58 121.98,347.79 125.88,350.64 C126.56,351.13 127.36,351.47 128.30,352.04 ZM 572.00 263.70 C572.00,264.75 560.74,265.00 512.50,265.00 C475.13,265.00 453.00,264.64 453.00,264.04 C453.00,263.51 464.08,240.67 477.61,213.29 C491.15,185.91 504.42,158.89 507.10,153.25 C509.78,147.61 512.44,143.00 513.00,143.00 C513.56,143.00 518.13,151.44 523.14,161.75 C528.15,172.06 536.98,190.18 542.76,202.00 C548.54,213.82 556.39,230.02 560.21,238.00 C564.02,245.98 568.23,254.73 569.57,257.45 C570.91,260.17 572.00,262.98 572.00,263.70 Z" fill="rgb(1,1,1)"/>
<path d="M 128.30 352.04 C121.58,347.95 122.00,356.06 122.01,229.30 C122.03,139.48 122.30,113.96 123.28,112.03 C123.97,110.67 126.05,108.53 127.91,107.28 L 131.30 105.00 L 219.24 105.00 C299.50,105.00 307.44,105.15 310.01,106.67 C318.41,111.62 315.92,126.26 306.23,128.95 C303.81,129.63 275.77,129.99 226.24,129.99 L 149.98 130.00 L 150.24 178.75 L 150.50 227.50 L 225.65 228.00 C297.87,228.48 300.87,228.57 302.90,230.41 C308.41,235.39 307.82,245.51 301.77,250.05 L 298.50 252.50 L 224.25 252.77 L 150.00 253.05 L 149.98 297.27 C149.96,338.72 149.84,341.77 148.04,345.73 C144.57,353.38 135.33,356.33 128.30,352.04 ZM 390.19 351.97 C386.45,349.70 384.00,344.77 384.00,339.54 C384.00,336.94 388.99,326.20 402.93,298.76 C413.34,278.27 439.64,226.18 461.37,183.00 C506.08,94.19 502.77,99.38 514.16,100.21 C522.10,100.78 525.22,103.94 532.53,118.86 C535.67,125.26 561.36,176.97 589.62,233.77 C617.88,290.57 641.00,337.94 641.00,339.05 C641.00,342.73 638.26,347.70 634.76,350.37 C628.18,355.39 620.08,353.21 613.94,344.78 C612.22,342.43 605.47,329.76 598.94,316.64 C592.41,303.52 586.54,292.16 585.91,291.39 C584.94,290.23 572.90,290.00 511.88,290.00 L 439.01 290.00 L 429.91 308.25 C414.02,340.10 409.10,348.66 405.06,351.46 C400.53,354.60 394.82,354.80 390.19,351.97 ZM 572.00 263.70 C572.00,262.98 570.91,260.17 569.57,257.45 C568.23,254.73 564.02,245.98 560.21,238.00 C556.39,230.02 548.54,213.82 542.76,202.00 C536.98,190.18 528.15,172.06 523.14,161.75 C518.13,151.44 513.56,143.00 513.00,143.00 C512.44,143.00 509.78,147.61 507.10,153.25 C504.42,158.89 491.15,185.91 477.61,213.29 C464.08,240.67 453.00,263.51 453.00,264.04 C453.00,264.64 475.13,265.00 512.50,265.00 C560.74,265.00 572.00,264.75 572.00,263.70 ZM 727.00 352.30 C724.87,351.21 722.72,348.93 721.50,346.50 C719.54,342.58 719.49,340.23 719.24,230.05 C719.01,131.26 719.16,116.96 720.51,112.31 C722.52,105.39 725.28,103.54 733.60,103.52 C738.88,103.50 740.25,103.88 742.52,106.00 C744.00,107.38 745.73,109.62 746.36,111.00 C747.16,112.75 747.65,131.49 748.00,173.15 L 748.50 232.79 L 756.08 226.15 C772.26,211.95 799.56,187.35 802.46,184.35 C804.13,182.62 814.28,173.47 825.00,164.03 C835.72,154.58 847.42,144.26 851.00,141.08 C880.71,114.68 887.88,108.46 890.50,106.85 C893.97,104.72 901.31,104.43 904.97,106.28 C908.65,108.14 912.01,113.72 911.96,117.90 C911.90,123.24 909.39,126.88 900.50,134.55 C892.83,141.16 841.38,186.69 820.50,205.32 C814.83,210.39 810.50,215.03 810.50,216.06 C810.50,217.05 813.86,221.38 817.96,225.68 C822.06,229.98 829.72,238.00 834.98,243.50 C840.23,249.00 851.28,260.68 859.52,269.46 C867.76,278.24 878.10,289.22 882.50,293.85 C886.90,298.48 890.95,302.78 891.50,303.41 C892.05,304.03 898.17,310.61 905.10,318.02 C912.02,325.43 918.21,332.48 918.85,333.68 C920.58,336.97 920.22,343.14 918.12,346.34 C914.16,352.34 906.14,354.69 900.20,351.59 C897.12,349.98 889.95,342.67 853.46,303.98 C812.48,260.55 802.67,250.00 796.03,242.25 C792.62,238.26 789.16,235.00 788.36,235.00 C787.56,235.00 785.38,236.46 783.53,238.25 C781.67,240.04 772.97,247.80 764.18,255.50 L 748.21 269.50 L 747.85 306.50 C747.58,335.22 747.20,344.09 746.14,346.15 C742.74,352.73 733.56,355.69 727.00,352.30 ZM 1010.90 351.73 C1003.50,346.79 1004.00,355.72 1004.06,228.50 C1004.10,142.90 1004.41,113.64 1005.31,111.03 C1006.00,109.03 1007.98,106.57 1010.00,105.20 C1016.40,100.86 1027.31,103.44 1030.74,110.10 C1031.67,111.91 1031.97,124.63 1031.99,161.62 C1031.99,188.64 1032.28,212.16 1032.63,213.88 L 1033.25 217.01 L 1098.38 216.76 L 1163.50 216.50 L 1164.00 164.00 C1164.39,123.22 1164.79,110.99 1165.81,109.20 C1170.68,100.67 1186.43,101.06 1190.58,109.80 C1192.19,113.20 1192.32,121.56 1192.40,228.15 L 1192.50 342.85 L 1190.41 345.67 C1186.65,350.75 1182.02,353.23 1177.26,352.71 C1172.02,352.14 1168.57,349.95 1166.27,345.74 C1164.66,342.80 1164.45,337.88 1164.00,292.50 L 1163.50 242.50 L 1098.00 242.50 L 1032.50 242.50 L 1032.00 293.68 C1031.51,343.46 1031.44,344.93 1029.43,347.68 C1026.86,351.18 1021.50,354.00 1017.40,354.00 C1015.69,354.00 1012.77,352.98 1010.90,351.73 ZM 1317.19 351.98 C1315.28,350.81 1313.07,348.17 1311.96,345.73 C1310.11,341.64 1310.04,337.76 1310.02,227.72 C1310.00,103.10 1309.73,108.74 1315.87,105.57 C1317.58,104.68 1321.38,104.00 1324.58,104.00 C1329.97,104.00 1330.48,104.22 1334.38,108.29 C1336.65,110.65 1340.10,115.27 1342.06,118.54 C1346.43,125.86 1360.61,148.84 1367.02,159.00 C1369.62,163.12 1380.18,180.23 1390.48,197.00 C1400.77,213.77 1409.97,228.62 1410.90,230.00 C1411.84,231.38 1415.88,238.01 1419.88,244.74 C1423.89,251.48 1427.57,257.23 1428.05,257.53 C1428.86,258.03 1431.98,253.49 1445.24,232.50 C1447.67,228.65 1452.77,220.65 1456.58,214.72 C1460.39,208.80 1465.30,201.03 1467.50,197.46 C1472.07,190.04 1486.80,166.66 1492.00,158.56 C1496.66,151.31 1512.40,126.02 1516.91,118.55 C1518.88,115.27 1522.12,110.89 1524.10,108.80 C1527.57,105.13 1527.92,105.00 1534.45,105.00 C1540.76,105.00 1541.42,105.22 1544.50,108.30 C1547.14,110.94 1547.94,112.71 1548.46,117.05 C1548.82,120.05 1548.98,172.23 1548.81,233.00 C1548.53,333.38 1548.35,343.77 1546.85,346.50 C1544.16,351.41 1541.59,353.09 1535.85,353.66 C1531.33,354.11 1529.96,353.82 1527.00,351.81 C1520.49,347.38 1520.81,352.43 1520.95,256.51 C1521.03,198.07 1520.74,168.96 1520.06,168.53 C1518.77,167.74 1520.80,164.59 1457.16,266.00 C1441.98,290.19 1436.76,296.58 1431.37,297.59 C1422.09,299.33 1417.30,294.34 1397.89,262.75 C1396.46,260.41 1392.90,254.68 1389.98,250.00 C1384.81,241.72 1371.38,219.86 1366.12,211.17 C1364.68,208.79 1361.89,204.29 1359.91,201.17 C1357.94,198.05 1352.54,189.43 1347.91,182.00 L 1339.50 168.50 L 1339.00 256.00 C1338.51,341.26 1338.45,343.58 1336.50,346.82 C1332.34,353.71 1323.79,356.00 1317.19,351.98 Z" fill="rgb(253,253,253)"/>
</g>
</svg>